<!DOCTYPE svg PUBLIC "-//W3C//DTD SVG 1.1//EN" "http://www.w3.org/Graphics/SVG/1.1/DTD/svg11.dtd">
<!-- Uploaded to: SVG Repo, www.svgrepo.com, Transformed by: SVG Repo Mixer Tools -->
<svg fill="#f5f5dc" height="800px" width="800px" version="1.1" id="Capa_1" xmlns="http://www.w3.org/2000/svg" xmlns:xlink="http://www.w3.org/1999/xlink" viewBox="0 0 446.89 446.89" xml:space="preserve" stroke="#f5f5dc">
<g id="SVGRepo_bgCarrier" stroke-width="0"/>
<g id="SVGRepo_tracerCarrier" stroke-linecap="round" stroke-linejoin="round"/>
<g id="SVGRepo_iconCarrier"> <path d="M419.562,75.134c-1.802,0-3.614,0.19-5.387,0.565c-6.792,1.432-12.622,5.43-16.409,11.256 c-3.782,5.818-5.069,12.756-3.623,19.536c1.874,8.886,0.293,18.048-4.132,23.89c-3.784,4.989-9.58,7.677-17.717,8.213 c-6.592,0.433-13.215,1.053-19.685,2.108c-6.827-6.646-14.473-12.064-22.856-16.092c-16.755-8.05-34.214-11.8-54.945-11.8 c-13.138,0-26.366,1.504-39.159,2.959c-2.673,0.304-5.369,0.607-8.079,0.902c3.817-23.518,12.292-53.173,30.9-78.06 c6.497-8.688,4.72-20.999-3.969-27.495c-8.689-6.497-20.999-4.72-27.495,3.969c-13.633,18.232-22.85,38.195-29.07,57.323 c-4.109-8.898-17.174-33.323-41.688-46.042c-11.944-6.197-25.937-9.339-41.591-9.339c-13.382,0-23.18,2.395-23.591,2.497 c-2.738,0.68-5.051,2.504-6.351,5.008c-1.299,2.504-1.459,5.446-0.439,8.076c0.535,1.379,13.445,33.963,43.122,49.362 c11.942,6.196,25.933,9.337,41.583,9.337c13.39,0,23.192-2.397,23.603-2.499c0.242-0.06,0.476-0.14,0.711-0.218 c-2.688,10.731-4.5,20.928-5.71,30.086c-11.482-0.404-22.713-1.666-33.632-2.908c-12.794-1.455-26.023-2.959-39.16-2.959 c-20.732,0-38.191,3.75-54.945,11.801c-28.082,13.494-47.979,42.472-56.027,81.596c-7.701,37.44-3.678,80.177,11.328,120.338 C40.43,394.218,91.48,439.686,142.182,439.686c12.209,0,23.95-2.667,34.902-7.93c4.37-2.102,7.796-4.716,10.549-6.817 c4.081-3.113,5.35-3.897,7.168-3.897c1.816,0,3.085,0.783,7.162,3.894c2.755,2.102,6.184,4.718,10.561,6.822 c10.946,5.26,22.687,7.928,34.896,7.928c0.003,0-0.001,0,0.002,0c50.697,0,101.749-45.471,127.028-113.141 c15.006-40.161,19.029-82.898,11.329-120.338c-1.167-5.674-2.591-11.127-4.246-16.358c25.999-3.363,41.394-16.909,49.872-28.102 c13.662-18.025,18.601-42.084,13.548-66.008C442.428,83.8,431.75,75.134,419.562,75.134z M423.054,155.421 c-7.779,10.268-22.43,22.857-48.038,24.545c-19.494,1.279-30.711,4.341-35.294,9.629c-4.376,5.045-5.8,15.443-4.482,32.729 c0.655,8.532-5.732,15.976-14.265,16.63c-0.401,0.031-0.8,0.046-1.196,0.046c-7.756,0-14.363-5.785-15.349-13.519 c-0.035-0.261-0.061-0.527-0.081-0.796c-1.443-18.905-1.15-40.267,11.964-55.394c13.353-15.395,35.128-18.828,56.67-20.243 c11.192-0.737,19.73-4.892,25.379-12.341c6.302-8.318,8.553-20.432,6.027-32.4c-0.14-0.658-0.221-1.313-0.275-1.966 c0.697,0.184,1.424,0.292,2.178,0.292c4.702,0,8.513-3.811,8.513-8.51c0-2.582-1.154-4.891-2.97-6.452 c1.371-0.786,2.881-1.38,4.509-1.723c1.08-0.229,2.157-0.338,3.218-0.338c1.367,0,2.707,0.185,3.992,0.53 c-0.836,1.317-1.327,2.876-1.327,4.551c0,4.696,3.811,8.512,8.513,8.512c1.453,0,2.82-0.366,4.017-1.009 C439.08,119.045,434.828,139.888,423.054,155.421z"/> </g>
</svg>